<?xml version="1.0" encoding="UTF-8" standalone="no"?>
<!-- Created with Inkscape (http://www.inkscape.org/) -->

<svg
   version="1.1"
   id="svg2"
   width="600"
   height="600"
   viewBox="0 0 600.00003 600"
   sodipodi:docname="logo.svg"
   inkscape:version="1.2.2 (b0a8486541, 2022-12-01)"
   xmlns:inkscape="http://www.inkscape.org/namespaces/inkscape"
   xmlns:sodipodi="http://sodipodi.sourceforge.net/DTD/sodipodi-0.dtd"
   xmlns="http://www.w3.org/2000/svg"
   xmlns:svg="http://www.w3.org/2000/svg">
  <defs
     id="defs6" />
  <sodipodi:namedview
     id="namedview4"
     pagecolor="#ffffff"
     bordercolor="#666666"
     borderopacity="1.0"
     inkscape:showpageshadow="2"
     inkscape:pageopacity="0.0"
     inkscape:pagecheckerboard="false"
     inkscape:deskcolor="#d1d1d1"
     showgrid="false"
     inkscape:zoom="0.680206"
     inkscape:cx="138.9285"
     inkscape:cy="445.45329"
     inkscape:window-width="1920"
     inkscape:window-height="1131"
     inkscape:window-x="0"
     inkscape:window-y="0"
     inkscape:window-maximized="1"
     inkscape:current-layer="g8"
     showguides="true">
    <sodipodi:guide
       position="300.08718,394.53032"
       orientation="1,0"
       id="guide2366"
       inkscape:locked="false" />
  </sodipodi:namedview>
  <g
     inkscape:groupmode="layer"
     inkscape:label="Image"
     id="g8"
     transform="translate(-212.31789,-189.78307)">
    <rect
       style="fill:#3b3b3b;fill-opacity:1;stroke:#4d4d4d;stroke-width:0;stroke-linecap:round;stroke-linejoin:round;stroke-dasharray:none;paint-order:stroke markers fill"
       id="rect342"
       width="600"
       height="600"
       x="212.31789"
       y="189.78307" />
    <g
       id="g396"
       transform="matrix(0.98798234,0,0,0.98798234,-134.93083,120.47369)"
       style="fill:#f2f2f2">
      <path
         style="fill:#f2f2f2;stroke-width:1.33333"
         d="m 497.81735,526.29888 c -1.06208,-0.68937 -1.72541,-16.97802 -2.23893,-54.97958 -0.40134,-29.7 -1.43072,-66.9 -2.28751,-82.66667 -2.60705,-47.97534 1.25343,-174.37753 5.91176,-193.56671 2.63999,-10.87494 8.03756,-21.93326 11.66441,-23.89754 2.28259,-1.23624 12.35797,-1.71685 37.33845,-1.78109 l 34.21232,-0.088 5.74774,4.03533 c 18.44508,12.94979 45.78642,54.83858 61.11435,93.63134 2.3905,6.05 4.80544,11 5.36656,11 1.78432,0 3.40768,-3.01976 8.60127,-16 12.43027,-31.0667 30.52199,-60.34276 48.73741,-78.86696 9.06772,-9.22144 12.54422,-11.85915 17.34138,-13.15739 8.11456,-2.196 65.94414,-1.17601 70.45663,1.24271 3.63019,1.9458 8.79354,12.88204 11.61579,24.60282 5.26772,21.87683 8.54925,173.46729 4.75187,219.51215 -0.81647,9.9 -1.48595,38.42999 -1.48772,63.39999 -0.003,33.52962 -0.42158,45.81834 -1.60324,47 -1.9668,1.9668 -79.13165,2.3189 -80.33825,0.36659 -0.41926,-0.67839 -0.16728,-2.62839 0.55996,-4.33333 1.20149,-2.8168 5.68137,-32.31406 9.27952,-61.09992 0.77914,-6.23334 2.63078,-25.43333 4.11474,-42.66667 1.48395,-17.23333 3.56834,-39.13333 4.63195,-48.66666 2.25445,-20.20687 2.60881,-62.90607 0.62359,-75.14053 -1.87863,-11.5776 -8.30607,-24.20708 -12.29071,-24.1504 -6.53359,0.0929 -9.27596,4.77281 -22.6336,38.62426 -11.41781,28.93551 -11.97184,30.75909 -19.03867,62.66667 -12.86137,58.07065 -15.52381,68.66814 -17.67005,70.33333 -3.02904,2.3501 -46.90141,2.3501 -49.97574,0 -1.36598,-1.0442 -3.68356,-8.38936 -6.20534,-19.66667 -18.71037,-83.67245 -20.74194,-90.79522 -36.84588,-129.18281 -7.11596,-16.96256 -11.25448,-22.81717 -16.12909,-22.81717 -2.77972,0 -4.02676,1.57133 -8.16853,10.29275 l -4.88802,10.29274 -0.50818,28.70725 c -0.35811,20.22908 0.1192,34.6139 1.61637,48.70726 1.16851,11 3.01357,30.2 4.10016,42.66666 4.16479,47.78375 11.38308,104.70959 14.08767,111.09992 0.72158,1.70495 0.96894,3.65495 0.54969,4.33333 -0.90287,1.46087 -77.87628,1.66552 -80.11413,0.213 z m 115.19264,-7.66754 c -11.40655,-6.39506 -9.70074,-26.49042 2.53545,-29.86899 6.09945,-1.68415 13.41888,1.28567 16.16029,6.55695 2.79247,5.36944 1.37456,16.85233 -2.56772,20.7946 -4.13217,4.13217 -11.26269,5.24518 -16.12802,2.51744 z m 74.20803,0.4595 c -6.97622,-1.80772 -9.2248,-5.55184 -9.2248,-15.3603 0,-7.81594 0.35764,-8.94976 3.74102,-11.86002 5.1698,-4.44688 14.43608,-4.49534 18.83292,-0.0985 5.82176,5.82176 5.65784,20.03457 -0.2908,25.21196 -3.00856,2.61851 -7.98519,3.42145 -13.05834,2.10687 z"
         id="path297"
         sodipodi:nodetypes="sssssscssssssssscsssssssssssssssscssssssssssssssssss" />
    </g>
    <path
       d="m 681.27448,694.51855 c -0.53277,-0.53279 -0.71718,-6.58988 -0.71718,-23.55842 0,-12.56268 0.16324,-23.26665 0.36276,-23.78659 0.31596,-0.82338 2.10166,-0.94537 13.83757,-0.94537 h 13.47481 l 4.38392,4.33299 4.38392,4.33297 0.007,15.5723 c 0.008,17.72103 0.38194,16.28898 -5.73276,21.94692 l -3.05028,2.82238 h -13.11626 c -9.40466,0 -13.31923,-0.20294 -13.83345,-0.71718 z m 24.23481,-10.36744 c 0.56989,-0.17793 0.74708,-3.56657 0.74708,-14.2855 v -14.05222 l -1.51034,-0.37907 c -1.99916,-0.50176 -13.2385,-0.0353 -13.84936,0.57484 -0.26294,0.26263 -0.47809,6.65056 -0.47809,14.1954 0,10.99166 0.16325,13.81892 0.82144,14.2263 0.76371,0.47271 12.6029,0.2406 14.26927,-0.27975 z m -379.60684,9.68993 c -0.81003,-0.60338 -0.94943,-3.17161 -1.03684,-19.10447 -0.11152,-20.32731 0.0466,-19.5436 -3.94208,-19.5436 -3.78772,0 -3.71659,-0.36655 -3.88511,20.02138 l -0.15315,18.52725 -4.63181,0.17455 -4.63182,0.17456 v -23.86732 c 0,-18.58165 0.16545,-23.91459 0.74707,-24.0807 0.41089,-0.11734 10.42905,-0.0788 22.26258,0.0855 l 21.51551,0.29882 v 23.6073 23.60731 h -4.78121 -4.78123 l -0.29883,-18.52726 c -0.16435,-10.18998 -0.51641,-18.86342 -0.78234,-19.27431 -0.26593,-0.41089 -1.52142,-0.74706 -2.78997,-0.74706 -4.49381,0 -4.19718,-1.37475 -4.19718,19.45239 0,10.29978 -0.21453,18.85946 -0.47674,19.02151 -1.13348,0.70053 -7.25429,0.83155 -8.13685,0.17417 z m 36.25505,0.12056 c -0.57104,-0.57932 -0.74707,-6.069 -0.74707,-23.3003 0,-12.39833 0.16325,-22.96782 0.36277,-23.48776 0.31958,-0.83281 2.48483,-0.94537 18.18543,-0.94537 h 17.82265 l 0.40262,3.22246 c 0.62206,4.97876 0.2344,5.58572 -3.77627,5.91258 -1.87734,0.15299 -7.41303,0.17153 -12.30152,0.0412 -6.11442,-0.16303 -9.14522,-0.0237 -9.71186,0.44661 -1.08974,0.90442 -1.154,9.21775 -0.0767,9.91502 0.41089,0.26594 3.97439,0.61799 7.91891,0.78235 l 7.17184,0.29883 0.17714,3.36608 c 0.26075,4.95509 -0.27708,5.29988 -8.26712,5.29988 -7.41233,0 -7.75527,0.21676 -7.73868,4.89135 0.0156,4.39078 -0.35944,4.26861 13.44254,4.37954 9.90573,0.0797 12.46275,0.26659 12.89064,0.94252 0.70759,1.11779 0.68463,6.58084 -0.0324,7.7162 -0.47717,0.75552 -3.27131,0.92636 -17.77103,1.08658 -13.30841,0.14704 -17.37403,0.0185 -17.95191,-0.56777 z m 168.38034,-0.53466 c -0.36142,-0.67533 -0.60094,-3.74536 -0.54141,-6.93941 0.0804,-4.31049 -0.0972,-5.8566 -0.71756,-6.24685 -0.82875,-0.52139 -14.05066,-0.15333 -14.97316,0.4168 -0.27152,0.16782 -0.49368,2.79282 -0.49368,5.83332 0,7.28257 -0.29179,7.66349 -5.69192,7.43061 l -4.16937,-0.17981 -0.15662,-22.96993 c -0.12258,-17.97908 0.007,-23.07395 0.59767,-23.44873 1.28672,-0.81682 34.16967,-0.61007 34.9998,0.22007 0.53238,0.53238 0.71718,6.50778 0.71718,23.18895 0,16.68116 -0.1848,22.65656 -0.71718,23.18894 -0.40517,0.40517 -2.3461,0.71718 -4.46138,0.71718 -3.14884,0 -3.84725,-0.19258 -4.39237,-1.21114 z m -0.71933,-25.03995 c 0.23594,-0.63232 0.29451,-3.52346 0.13016,-6.42478 l -0.29883,-5.27512 -6.27536,-0.17426 c -9.45626,-0.2626 -8.9648,-0.61134 -8.9648,6.36141 0,3.22604 0.17929,6.04484 0.39844,6.26397 0.21913,0.21914 3.5896,0.39843 7.48992,0.39843 6.45052,0 7.13027,-0.10391 7.52047,-1.14965 z m -123.78329,25.255 c -0.21915,-0.21914 -0.39844,-10.67659 -0.39844,-23.23878 v -22.84033 l 1.34473,-0.36037 c 0.73959,-0.1982 10.52311,-0.36405 21.74116,-0.36852 16.5274,-0.006 20.52506,0.14683 21.07454,0.80889 0.48563,0.58514 0.63362,7.24333 0.52142,23.45789 l -0.15669,22.64083 h -4.48239 -4.4824 l -0.29883,-18.76622 c -0.33636,-21.1231 -0.0134,-19.88135 -4.99754,-19.21605 l -2.47313,0.33012 -0.29881,18.82608 -0.29883,18.82607 h -4.4824 -4.4824 l -0.15847,-17.87926 c -0.10612,-11.97399 -0.37703,-18.14263 -0.82024,-18.67666 -0.82856,-0.99837 -5.99251,-1.0578 -6.97008,-0.0802 -0.52626,0.52625 -0.71719,5.53826 -0.71719,18.82607 v 18.1089 h -4.38278 c -2.41054,0 -4.5621,-0.1793 -4.78123,-0.39844 z m 53.19987,0.009 c -0.22394,-0.22394 -0.40716,-10.58886 -0.40716,-23.03317 v -22.62601 l 1.53303,-0.58286 c 1.64977,-0.62724 32.3984,-0.82641 33.97845,-0.22009 0.71256,0.27343 0.94537,1.22138 0.94537,3.84947 0,1.92998 -0.29903,3.67152 -0.66975,3.90063 -0.36835,0.22765 -6.15571,0.47272 -12.86079,0.54458 -6.70508,0.0719 -12.30563,0.24521 -12.44566,0.38523 -0.52012,0.52012 -0.45395,28.71513 0.0686,29.2377 0.29811,0.29812 6.18204,0.6149 13.07539,0.70397 l 12.53336,0.16194 v 3.88475 3.88474 l -17.67185,0.15814 c -9.71951,0.087 -17.85507,-0.0251 -18.079,-0.24902 z m 87.79453,-0.13054 c -0.45526,-0.73662 -0.48048,-45.56425 -0.0258,-46.01996 0.72261,-0.7244 33.58613,-0.80173 34.93059,-0.0822 1.09569,0.5864 1.23938,1.12626 1.08482,4.07603 l -0.17817,3.40009 -12.50446,0.16185 c -7.99356,0.10347 -12.79066,0.39936 -13.29779,0.82026 -0.61686,0.51195 -0.79332,3.68868 -0.79332,14.28235 0,7.49319 0.16325,14.04937 0.36278,14.56933 0.31461,0.8199 2.00403,0.94535 12.73,0.94535 8.82211,0 12.57284,0.20559 13.08444,0.71719 0.75031,0.75031 0.97903,5.07689 0.35442,6.70459 -0.31939,0.83233 -2.45918,0.94537 -17.89433,0.94537 -9.64237,0 -17.67626,-0.23412 -17.8531,-0.52025 z m 44.24245,-0.42512 c -0.46337,-1.20751 -0.46264,-43.74432 4.5e-4,-45.47194 0.29801,-1.111 0.84902,-1.32278 3.88723,-1.49413 1.947,-0.10981 3.80415,-0.11 4.127,-4.3e-4 0.33586,0.11398 0.58701,2.96968 0.58701,6.67472 0,3.56153 0.16325,6.90091 0.36277,7.42085 0.30577,0.79685 1.61853,0.94537 8.35576,0.94537 9.329,0 8.52412,0.76847 8.76349,-8.36715 l 0.14875,-5.6777 3.9401,-0.17457 c 2.83201,-0.12549 4.13667,0.0623 4.63908,0.66764 0.51266,0.61773 0.65721,6.87705 0.5423,23.48305 l -0.15649,22.64083 h -4.4824 -4.4824 l -0.29883,-10.75775 -0.29882,-10.75777 -8.02189,-0.16748 c -5.25451,-0.10969 -8.15898,0.0544 -8.41928,0.47555 -0.21859,0.35365 -0.45864,5.12222 -0.53345,10.59681 -0.0748,5.47457 -0.26894,10.1688 -0.43137,10.43161 -0.16243,0.26283 -1.99882,0.47786 -4.08086,0.47786 -2.90058,0 -3.87033,-0.221 -4.1483,-0.94537 z m 46.0637,0.55566 c -0.22395,-0.22394 -0.40717,-10.98963 -0.40717,-23.92375 v -23.51659 l 17.78017,0.1583 17.7802,0.15832 0.17388,4.24833 0.17387,4.24833 -4.53417,0.41088 c -2.49383,0.22598 -7.83322,0.22759 -11.86532,0.004 -9.72589,-0.5404 -9.94617,-0.4204 -9.94617,5.41831 0,2.88457 0.26018,4.59449 0.74706,4.90961 0.41089,0.26593 3.83992,0.61798 7.6201,0.78234 l 6.873,0.29882 0.18185,3.52361 c 0.10157,1.96884 -0.10158,3.80699 -0.46039,4.16582 -0.35321,0.35322 -3.79682,0.78467 -7.65249,0.95879 l -7.01031,0.31658 -0.53601,3.7671 c -0.38428,2.70082 -0.33961,3.96349 0.15782,4.46093 0.48104,0.48102 4.53138,0.7004 13.20626,0.71529 8.28643,0.0143 12.73476,0.24384 13.17076,0.67984 0.38423,0.38424 0.58334,2.25057 0.47814,4.4824 l -0.18023,3.82405 -17.67187,0.15812 c -9.71949,0.087 -17.85504,-0.0251 -18.07898,-0.24901 z"
       style="fill:#f2f2f2;stroke-width:0.597652"
       id="path406" />
  </g>
</svg>
