<?xml version="1.0" standalone="no"?>
<!DOCTYPE svg PUBLIC "-//W3C//DTD SVG 20010904//EN"
 "http://www.w3.org/TR/2001/REC-SVG-20010904/DTD/svg10.dtd">
<svg version="1.0" xmlns="http://www.w3.org/2000/svg"
 width="425.000000pt" height="436.000000pt" viewBox="0 0 425.000000 436.000000"
 preserveAspectRatio="xMidYMid meet">
<metadata>
Created by potrace 1.16, written by Peter Selinger 2001-2019
</metadata>
<g transform="translate(0.000000,436.000000) scale(0.100000,-0.100000)"
fill="#000000" stroke="none">
<path d="M2603 3954 c-3 -8 -1 -20 6 -27 7 -7 11 -56 11 -134 0 -116 -1 -123
-20 -123 -24 0 -24 3 -5 -50 20 -56 19 -60 -7 -60 -70 -1 -167 -81 -193 -161
l-17 -49 -30 25 c-63 53 -148 20 -148 -57 0 -38 18 -60 63 -77 17 -7 27 -18
27 -30 0 -19 2 -19 48 -6 60 19 57 19 70 -9 6 -13 24 -39 41 -58 l31 -35 -68
-99 c-38 -55 -117 -170 -176 -257 -88 -129 -110 -156 -122 -146 -15 12 -25 -5
-39 -69 l-7 -33 -31 20 c-51 30 -139 51 -219 51 -129 0 -241 -46 -331 -137
-52 -52 -114 -164 -123 -225 -4 -21 -9 -38 -13 -38 -3 0 -19 16 -34 35 -23 30
-34 35 -68 35 -37 0 -41 -3 -59 -42 -38 -83 -16 -171 48 -197 23 -10 29 -17
24 -33 -5 -19 -2 -20 57 -13 54 6 61 5 61 -10 0 -10 14 -42 31 -72 114 -198
355 -287 569 -208 25 9 52 18 60 21 11 3 60 -69 173 -253 137 -224 155 -259
142 -270 -14 -10 -11 -15 24 -44 l41 -32 -59 -63 c-92 -98 -124 -206 -97 -330
18 -88 54 -152 117 -208 71 -64 143 -90 249 -90 65 0 99 5 142 23 73 28 147
95 184 166 19 37 34 53 44 50 8 -2 32 -7 53 -11 32 -5 37 -4 37 13 0 12 13 25
35 36 43 20 71 72 61 112 -14 56 -94 105 -172 105 -24 0 -32 8 -48 43 -11 23
-37 60 -57 82 l-37 41 64 99 c85 132 174 308 213 423 105 305 105 998 2 1274
-23 60 -112 180 -178 239 -31 28 -38 40 -31 53 6 11 5 17 -4 20 -7 3 -30 10
-50 16 -26 8 -35 16 -31 26 6 17 7 17 66 -1 45 -13 47 -13 47 5 0 13 12 25 35
34 65 28 72 101 13 132 -18 9 -60 19 -93 22 -55 4 -62 7 -73 31 -28 63 -122
130 -184 131 -26 0 -27 1 -14 33 28 68 29 77 7 77 -20 0 -21 5 -21 123 0 78 4
127 11 134 17 17 3 43 -21 43 -11 0 -23 -7 -27 -16z m115 -430 c52 -21 90 -60
118 -119 39 -83 28 -164 -34 -235 -47 -56 -104 -83 -172 -84 -122 0 -230 108
-230 233 0 45 39 128 76 163 61 56 165 75 242 42z m-405 -155 c42 -22 67 -52
67 -81 0 -33 0 -33 -47 -13 -19 8 -37 15 -39 15 -2 0 -4 -7 -4 -15 0 -21 -26
-19 -50 5 -24 24 -25 48 -4 78 17 24 44 28 77 11z m696 -17 c34 -25 37 -46 12
-71 -25 -25 -51 -27 -51 -5 0 17 -22 13 -70 -11 l-25 -13 0 65 0 65 54 -5 c31
-3 66 -14 80 -25z m-144 -234 c25 -37 29 -40 40 -25 11 16 21 8 94 -68 101
-108 126 -149 155 -266 40 -157 51 -274 50 -549 -1 -381 -31 -549 -140 -780
-46 -96 -187 -334 -205 -346 -6 -3 -38 6 -72 22 -85 38 -189 44 -272 16 -33
-11 -62 -19 -66 -16 -4 2 -10 24 -13 49 -6 37 -10 44 -28 42 -17 -2 -48 42
-178 252 l-157 255 42 35 c24 20 54 50 67 66 30 36 78 124 78 143 0 11 13 12
61 7 57 -7 61 -6 55 11 -4 14 4 24 33 41 68 39 79 123 23 175 -27 26 -106 58
-141 58 -12 0 -29 22 -54 73 -24 48 -55 91 -91 125 l-54 51 39 27 c41 28 45
34 29 50 -7 7 45 91 155 255 91 134 171 249 178 256 9 9 26 8 73 -5 82 -21
150 -7 219 47 28 22 51 40 51 40 1 1 14 -18 29 -41z m-933 -584 c115 -29 232
-124 287 -231 147 -291 -72 -646 -399 -646 -231 0 -423 181 -447 418 -11 115
41 251 131 341 116 115 273 159 428 118z m-644 -334 c33 -31 58 -88 66 -149
l7 -54 -37 23 c-36 20 -39 21 -51 4 -11 -15 -15 -14 -49 20 -34 34 -36 40 -32
81 6 53 31 95 56 95 10 0 28 -9 40 -20z m1086 -5 c41 -17 64 -44 72 -83 6 -27
1 -37 -31 -69 -34 -34 -38 -36 -50 -20 -12 17 -15 17 -46 -2 l-34 -20 0 110
-1 110 30 -7 c16 -3 43 -12 60 -19z m397 -1107 c78 -37 134 -89 169 -161 38
-79 51 -147 39 -211 -30 -159 -145 -272 -303 -299 -229 -39 -444 192 -391 419
30 132 119 228 248 270 64 21 172 13 238 -18z m301 -230 c41 -12 98 -67 98
-94 0 -9 -16 -32 -35 -51 -33 -33 -37 -34 -49 -18 -12 16 -15 16 -53 -3 l-40
-21 8 47 c8 42 6 86 -8 135 -5 21 21 23 79 5z"/>
<path d="M2530 3370 c0 -5 5 -10 10 -10 6 0 10 5 10 10 0 6 -4 10 -10 10 -5 0
-10 -4 -10 -10z"/>
<path d="M2604 3365 c3 -9 0 -15 -8 -15 -21 0 -38 -27 -31 -50 5 -16 15 -20
53 -20 l47 0 -3 50 c-5 63 -20 65 -25 3 l-3 -48 -2 48 c-2 36 -6 47 -18 47
-10 0 -14 -6 -10 -15z m6 -49 c0 -8 -4 -17 -9 -20 -10 -7 -23 19 -14 28 11 11
23 6 23 -8z"/>
<path d="M2525 3341 c-3 -5 -1 -13 5 -16 6 -4 8 -15 5 -26 -4 -12 -2 -19 7
-19 10 0 13 10 10 35 -4 34 -15 45 -27 26z"/>
<path d="M2687 3343 c-11 -10 -8 -61 3 -68 12 -8 50 12 50 27 0 7 -4 7 -14 -1
-10 -9 -16 -8 -26 4 -11 13 -9 15 13 15 19 0 25 4 21 15 -6 15 -35 20 -47 8z"/>
<path d="M2727 2866 c-7 -8 -25 -16 -38 -18 -20 -2 -24 -9 -24 -38 0 -29 3
-34 20 -32 11 2 41 3 66 2 42 -1 47 1 51 25 4 19 1 25 -12 25 -13 0 -17 -6
-13 -20 7 -27 -23 -27 -37 -1 -20 38 16 74 45 45 13 -14 15 -13 15 5 0 17 -6
21 -29 21 -16 0 -36 -6 -44 -14z m-17 -55 c0 -18 -18 -21 -30 -6 -10 13 -9 15
9 15 11 0 21 -4 21 -9z"/>
<path d="M2619 2858 c-1 -7 -1 -24 0 -38 0 -25 0 -25 -10 3 -11 27 -49 39 -49
15 0 -9 -3 -10 -8 -2 -8 12 -131 13 -150 1 -13 -9 -7 -47 9 -58 5 -3 24 -3 43
-1 27 3 33 7 29 23 -3 10 -1 19 5 19 6 0 12 -10 14 -22 2 -17 9 -22 23 -20 11
2 43 3 71 2 l51 -1 -3 38 c-2 21 -3 41 -3 46 -1 12 -21 8 -22 -5z m-171 -38
c13 0 12 -3 -4 -14 -21 -16 -36 -3 -26 23 4 10 7 11 10 3 2 -7 11 -12 20 -12z
m102 -15 c-10 -12 -16 -13 -26 -4 -20 16 -18 19 12 19 22 0 25 -2 14 -15z"/>
<path d="M2818 2820 c-3 -17 -2 -32 0 -35 3 -3 40 -5 82 -5 l76 0 -4 35 c-4
35 -5 35 -53 35 -48 0 -49 -1 -44 -27 l5 -28 -11 28 c-15 38 -45 36 -51 -3z
m93 -23 c-8 -8 -11 -3 -11 19 1 25 2 27 11 11 8 -14 8 -22 0 -30z m39 18 c0
-14 -4 -25 -10 -25 -11 0 -14 33 -3 43 11 11 13 8 13 -18z"/>
<path d="M2997 2843 c-11 -10 -8 -61 3 -68 12 -8 50 12 50 27 0 7 -4 7 -14 -1
-10 -9 -16 -8 -26 4 -11 13 -9 15 13 15 19 0 25 4 21 15 -6 15 -35 20 -47 8z"/>
<path d="M2602 2158 c3 -7 -7 -19 -21 -26 -17 -9 -27 -10 -29 -3 -2 6 -12 11
-22 11 -12 0 -19 -9 -22 -30 -3 -17 -2 -32 0 -35 3 -3 47 -5 97 -5 l92 0 -5
28 c-2 18 2 33 13 42 16 13 17 11 14 -28 -4 -39 -3 -42 21 -41 14 0 19 3 13 6
-14 5 -18 73 -5 73 4 0 13 -5 20 -12 9 -9 12 -8 12 5 0 13 -9 17 -37 17 -21 0
-49 3 -62 7 -19 5 -23 3 -18 -9 4 -11 -1 -18 -14 -21 -14 -4 -19 0 -19 14 0
11 -7 19 -16 19 -9 0 -14 -6 -12 -12z m8 -52 c0 -8 -4 -17 -9 -20 -10 -7 -23
19 -14 28 11 11 23 6 23 -8z m60 0 c0 -8 -4 -17 -9 -20 -10 -7 -23 19 -14 28
11 11 23 6 23 -8z"/>
<path d="M2845 2120 c0 -47 2 -50 25 -49 14 0 19 3 13 6 -21 8 -15 31 9 35 26
3 37 36 16 49 -7 5 -24 9 -38 9 -23 0 -25 -3 -25 -50z m47 15 c0 -5 -5 -11
-11 -13 -6 -2 -11 4 -11 13 0 9 5 15 11 13 6 -2 11 -8 11 -13z"/>
<path d="M2990 2150 c0 -5 -11 -10 -24 -10 -30 0 -50 -23 -41 -49 5 -16 14
-20 49 -19 l43 0 -3 37 c-2 20 -3 39 -3 44 -1 11 -21 8 -21 -3z m-20 -51 c0
-21 -16 -26 -23 -6 -6 17 3 38 14 31 5 -3 9 -14 9 -25z"/>
<path d="M2781 2126 c-21 -25 -4 -58 27 -54 23 2 27 8 27 33 0 23 -5 31 -21
33 -11 2 -26 -4 -33 -12z m39 -27 c0 -21 -16 -26 -23 -6 -6 17 3 38 14 31 5
-3 9 -14 9 -25z"/>
<path d="M2410 1418 c0 -20 -3 -28 -8 -21 -4 7 -19 14 -32 15 -22 3 -24 0 -24
-44 -1 -39 2 -48 16 -48 11 0 15 5 12 15 -4 9 0 15 10 15 9 0 16 6 16 13 0 8
3 9 8 1 4 -6 31 -12 61 -13 29 -1 57 -4 62 -6 4 -3 14 1 21 8 10 11 15 12 23
2 7 -8 29 -10 70 -6 l60 6 1 35 c2 45 -11 60 -51 60 -29 0 -32 -2 -29 -27 2
-16 1 -22 -2 -15 -9 18 -45 14 -51 -6 -6 -25 -40 -45 -46 -28 -3 7 -1 19 4 27
6 10 9 10 9 2 0 -7 5 -13 10 -13 6 0 10 7 10 15 0 18 -31 20 -49 3 -11 -10
-14 -10 -18 0 -3 6 -13 12 -24 12 -13 0 -19 -7 -19 -24 0 -14 -4 -28 -10 -31
-6 -4 -10 12 -10 39 0 25 -4 46 -10 46 -5 0 -10 -15 -10 -32z m268 0 c-6 -18
-28 -21 -28 -4 0 9 7 16 16 16 9 0 14 -5 12 -12z m-293 -37 c3 -5 1 -12 -5
-16 -5 -3 -10 1 -10 9 0 18 6 21 15 7z m235 -6 c-10 -12 -16 -13 -26 -4 -20
16 -18 19 12 19 22 0 25 -2 14 -15z m63 0 c1 -5 -6 -11 -15 -13 -11 -2 -18 3
-18 13 0 17 30 18 33 0z"/>
<path d="M2780 1431 c0 -5 -12 -11 -27 -13 -25 -3 -28 -7 -28 -38 0 -29 3 -34
20 -32 11 2 29 3 41 3 21 -1 21 -2 15 82 -1 10 -21 9 -21 -2z m-10 -56 c-10
-12 -16 -13 -26 -4 -20 16 -18 19 12 19 22 0 25 -2 14 -15z"/>
<path d="M1674 2199 c-3 -6 -8 -29 -9 -51 -3 -38 -3 -39 28 -36 43 4 51 37 10
39 -22 1 -23 3 -7 6 26 5 38 39 17 47 -22 9 -31 7 -39 -5z m26 -15 c0 -8 -5
-12 -10 -9 -6 4 -8 11 -5 16 9 14 15 11 15 -7z m10 -60 c0 -2 -7 -4 -15 -4 -8
0 -15 4 -15 10 0 5 7 7 15 4 8 -4 15 -8 15 -10z"/>
<path d="M1738 2180 c-3 -17 -2 -32 0 -35 3 -3 40 -5 82 -5 l76 0 -4 35 c-4
35 -5 35 -53 35 -48 0 -49 -1 -44 -27 l5 -28 -11 28 c-15 38 -45 36 -51 -3z
m93 -23 c-8 -8 -11 -3 -11 19 1 25 2 27 11 11 8 -14 8 -22 0 -30z m39 18 c0
-14 -4 -25 -10 -25 -11 0 -14 33 -3 43 11 11 13 8 13 -18z"/>
<path d="M1917 2203 c-11 -10 -8 -61 3 -68 12 -8 50 12 50 27 0 7 -4 7 -14 -1
-10 -9 -16 -8 -26 4 -11 13 -9 15 13 15 19 0 25 4 21 15 -6 15 -35 20 -47 8z"/>
<path d="M1770 2080 c0 -5 5 -10 10 -10 6 0 10 5 10 10 0 6 -4 10 -10 10 -5 0
-10 -4 -10 -10z"/>
<path d="M1810 2041 l0 -48 72 -2 c48 -1 74 3 80 11 6 10 8 10 8 1 0 -7 6 -13
13 -13 8 0 11 15 9 50 -4 55 -22 69 -23 18 0 -18 -3 -27 -6 -20 -2 6 -11 12
-19 12 -8 0 -14 9 -14 21 0 12 -5 19 -12 17 -8 -3 -12 -20 -11 -44 2 -37 2
-38 -8 -11 -14 35 -49 38 -49 3 0 -14 -4 -28 -10 -31 -6 -4 -10 12 -10 39 0
25 -4 46 -10 46 -5 0 -10 -22 -10 -49z m135 -20 c3 -5 1 -12 -5 -16 -5 -3 -10
1 -10 9 0 18 6 21 15 7z"/>
<path d="M1578 2030 c-5 -36 -3 -40 34 -40 32 0 31 -2 17 39 -15 41 -45 42
-51 1z"/>
<path d="M1630 2053 c1 -5 9 -24 19 -43 l19 -35 16 39 c19 45 19 46 6 46 -5 0
-10 -7 -10 -15 0 -8 -4 -15 -10 -15 -5 0 -10 7 -10 15 0 8 -7 15 -15 15 -8 0
-15 -3 -15 -7z"/>
<path d="M1708 2030 c-6 -38 -3 -40 47 -40 l41 0 -4 35 c-4 34 -15 45 -27 26
-3 -5 -1 -12 5 -16 12 -8 13 -25 1 -25 -5 0 -12 11 -15 25 -9 37 -43 33 -48
-5z"/>
<path d="M2017 2053 c-11 -10 -8 -61 3 -68 12 -8 50 12 50 27 0 7 -4 7 -14 -1
-10 -9 -16 -8 -26 4 -11 13 -9 15 13 15 19 0 25 4 21 15 -6 15 -35 20 -47 8z"/>
<path d="M2549 896 c-2 -3 -3 -25 -1 -50 4 -40 7 -46 27 -46 25 0 38 21 29 45
-4 8 -12 15 -20 15 -8 0 -14 9 -14 20 0 18 -10 26 -21 16z m36 -65 c3 -5 1
-12 -5 -16 -5 -3 -10 1 -10 9 0 18 6 21 15 7z"/>
<path d="M2680 881 c0 -5 -12 -11 -27 -13 -25 -3 -28 -7 -28 -38 0 -29 3 -34
20 -32 11 2 29 3 41 3 21 -1 21 -2 15 82 -1 10 -21 9 -21 -2z m-10 -56 c-10
-12 -16 -13 -26 -4 -20 16 -18 19 12 19 22 0 25 -2 14 -15z"/>
<path d="M2530 701 l0 -49 62 -4 c39 -2 66 1 74 9 9 10 13 9 18 -3 4 -11 12
-14 24 -9 9 4 35 7 57 6 l40 -2 -3 51 c-3 36 -8 50 -19 50 -8 0 -13 -6 -10
-13 2 -7 -6 -18 -19 -24 -13 -6 -24 -7 -24 -2 0 17 -42 9 -47 -9 -6 -25 -40
-45 -46 -28 -3 7 -1 19 4 27 6 10 9 10 9 2 0 -7 5 -13 10 -13 6 0 10 7 10 15
0 18 -31 20 -49 3 -11 -10 -14 -10 -18 0 -9 24 -41 13 -46 -15 -3 -20 -4 -15
-6 15 -2 59 -21 53 -21 -7z m250 -15 c0 -8 -4 -17 -9 -20 -10 -7 -23 19 -14
28 11 11 23 6 23 -8z m-50 -5 c0 -18 -18 -21 -30 -6 -10 13 -9 15 9 15 11 0
21 -4 21 -9z"/>
<path d="M2459 714 c-1 -5 -2 -28 -3 -51 -1 -35 2 -43 16 -43 11 0 15 5 12 15
-4 9 0 15 9 15 8 0 17 7 21 15 6 17 -2 45 -14 45 -5 0 -15 3 -24 6 -9 3 -16 2
-17 -2z m36 -33 c3 -5 1 -12 -5 -16 -5 -3 -10 1 -10 9 0 18 6 21 15 7z"/>
<path d="M1688 3335 c3 -28 0 -45 -7 -45 -6 0 -11 14 -11 31 l0 31 -97 -4 -98
-3 0 -33 c0 -23 5 -32 17 -32 11 0 15 6 11 20 -3 11 -1 20 5 20 6 0 12 -10 14
-22 2 -13 9 -23 16 -22 6 1 54 2 105 3 50 2 86 5 80 8 -22 8 -15 35 7 28 16
-5 20 -2 20 16 0 18 -3 20 -12 11 -17 -17 -28 -15 -28 4 0 12 7 15 25 12 17
-4 25 -1 25 8 0 9 -13 14 -38 14 l-37 0 3 -45z m-77 -38 c-8 -8 -11 -3 -11 19
1 25 2 27 11 11 8 -14 8 -22 0 -30z m39 18 c0 -14 -4 -25 -10 -25 -11 0 -14
33 -3 43 11 11 13 8 13 -18z m-80 -10 c-10 -12 -16 -13 -26 -4 -20 16 -18 19
12 19 22 0 25 -2 14 -15z"/>
<path d="M1988 3335 c3 -28 0 -45 -7 -45 -6 0 -11 14 -11 30 l0 31 -102 -3
-103 -4 0 -32 c0 -23 5 -32 17 -32 11 0 15 6 12 23 l-5 22 12 -23 c17 -32 60
-27 71 8 7 24 8 24 4 -2 l-3 -28 81 1 c44 0 75 3 69 6 -21 8 -15 31 9 35 26 3
37 36 16 49 -7 5 -24 9 -38 9 -24 0 -25 -3 -22 -45z m44 10 c0 -5 -5 -11 -11
-13 -6 -2 -11 4 -11 13 0 9 5 15 11 13 6 -2 11 -8 11 -13z m-182 -36 c0 -21
-16 -26 -23 -6 -6 17 3 38 14 31 5 -3 9 -14 9 -25z m61 -12 c-8 -8 -11 -3 -11
19 1 25 2 27 11 11 8 -14 8 -22 0 -30z m39 18 c0 -14 -4 -25 -10 -25 -11 0
-14 33 -3 43 11 11 13 8 13 -18z"/>
<path d="M3192 3368 c3 -7 -7 -19 -21 -26 -17 -9 -27 -10 -29 -3 -2 6 -12 11
-22 11 -12 0 -19 -9 -22 -30 -3 -17 -2 -32 0 -35 3 -3 62 -5 131 -4 69 0 120
3 114 6 -14 5 -18 73 -5 73 4 0 13 -5 20 -12 9 -9 12 -8 12 5 0 12 -9 17 -32
17 -18 0 -44 3 -57 7 -19 5 -23 3 -19 -8 4 -9 -4 -19 -18 -26 -22 -10 -24 -9
-24 13 0 15 -6 24 -16 24 -9 0 -14 -6 -12 -12z m118 -43 c0 -19 -4 -35 -10
-35 -11 0 -14 53 -3 63 11 12 13 8 13 -28z m-110 -9 c0 -8 -4 -17 -9 -20 -10
-7 -23 19 -14 28 11 11 23 6 23 -8z m70 0 c0 -8 -4 -17 -9 -20 -10 -7 -23 19
-14 28 11 11 23 6 23 -8z"/>
<path d="M3435 3330 c0 -47 2 -50 25 -49 14 0 19 3 13 6 -21 8 -15 31 9 35 26
3 37 36 16 49 -7 5 -24 9 -38 9 -23 0 -25 -3 -25 -50z m47 15 c0 -5 -5 -11
-11 -13 -6 -2 -11 4 -11 13 0 9 5 15 11 13 6 -2 11 -8 11 -13z"/>
<path d="M2138 3359 c-7 -22 5 -79 17 -79 11 0 11 8 6 83 -1 11 -19 8 -23 -4z"/>
<path d="M3580 3360 c0 -5 -11 -10 -24 -10 -30 0 -50 -23 -41 -49 5 -16 14
-20 49 -19 l43 0 -3 37 c-2 20 -3 39 -3 44 -1 11 -21 8 -21 -3z m-20 -51 c0
-21 -16 -26 -23 -6 -6 17 3 38 14 31 5 -3 9 -14 9 -25z"/>
<path d="M2071 3336 c-21 -25 -4 -58 27 -54 23 2 27 8 27 33 0 23 -5 31 -21
33 -11 2 -26 -4 -33 -12z m39 -27 c0 -21 -16 -26 -23 -6 -6 17 3 38 14 31 5
-3 9 -14 9 -25z"/>
<path d="M3371 3336 c-21 -25 -4 -58 27 -54 23 2 27 8 27 33 0 23 -5 31 -21
33 -11 2 -26 -4 -33 -12z m39 -27 c0 -21 -16 -26 -23 -6 -6 17 3 38 14 31 5
-3 9 -14 9 -25z"/>
<path d="M658 2125 c3 -28 0 -45 -7 -45 -6 0 -11 14 -11 31 l0 31 -97 -4 -98
-3 0 -33 c0 -23 5 -32 17 -32 11 0 15 6 11 20 -3 11 -1 20 5 20 6 0 12 -10 14
-22 2 -13 9 -23 16 -22 6 1 54 2 105 3 50 2 86 5 80 8 -22 8 -15 35 7 28 16
-5 20 -2 20 16 0 18 -3 20 -12 11 -17 -17 -28 -15 -28 4 0 12 7 15 25 12 17
-4 25 -1 25 8 0 9 -13 14 -38 14 l-37 0 3 -45z m-77 -38 c-8 -8 -11 -3 -11 19
1 25 2 27 11 11 8 -14 8 -22 0 -30z m39 18 c0 -14 -4 -25 -10 -25 -11 0 -14
33 -3 43 11 11 13 8 13 -18z m-80 -10 c-10 -12 -16 -13 -26 -4 -20 16 -18 19
12 19 22 0 25 -2 14 -15z"/>
<path d="M958 2125 c3 -28 0 -45 -7 -45 -6 0 -11 14 -11 30 l0 31 -102 -3
-103 -4 0 -32 c0 -23 5 -32 17 -32 11 0 15 6 12 23 l-5 22 12 -23 c17 -32 60
-27 71 8 7 24 8 24 4 -2 l-3 -28 81 1 c44 0 75 3 69 6 -21 8 -15 31 9 35 26 3
37 36 16 49 -7 5 -24 9 -38 9 -24 0 -25 -3 -22 -45z m44 10 c0 -5 -5 -11 -11
-13 -6 -2 -11 4 -11 13 0 9 5 15 11 13 6 -2 11 -8 11 -13z m-182 -36 c0 -21
-16 -26 -23 -6 -6 17 3 38 14 31 5 -3 9 -14 9 -25z m61 -12 c-8 -8 -11 -3 -11
19 1 25 2 27 11 11 8 -14 8 -22 0 -30z m39 18 c0 -14 -4 -25 -10 -25 -11 0
-14 33 -3 43 11 11 13 8 13 -18z"/>
<path d="M3314 2155 c3 -9 0 -15 -8 -15 -21 0 -38 -27 -31 -49 4 -14 17 -20
48 -23 23 -3 49 -2 57 3 8 4 22 3 32 -2 11 -6 21 -4 33 7 19 19 12 32 -9 15
-17 -14 -29 8 -15 30 6 11 9 11 9 1 0 -7 8 -12 18 -10 12 2 16 -3 15 -19 -2
-13 3 -23 10 -23 9 0 12 11 9 34 -3 29 -7 33 -35 34 -17 0 -37 -4 -44 -10 -9
-7 -13 -7 -13 2 0 8 -9 11 -25 8 -19 -4 -25 -1 -25 13 0 11 -7 19 -16 19 -10
0 -14 -6 -10 -15z m6 -49 c0 -8 -4 -17 -9 -20 -10 -7 -23 19 -14 28 11 11 23
6 23 -8z m70 -5 c0 -18 -18 -21 -30 -6 -10 13 -9 15 9 15 11 0 21 -4 21 -9z"/>
<path d="M3460 2160 c0 -5 5 -10 10 -10 6 0 10 5 10 10 0 6 -4 10 -10 10 -5 0
-10 -4 -10 -10z"/>
<path d="M3532 2158 c3 -7 -5 -17 -16 -23 -23 -12 -30 -33 -17 -53 6 -10 34
-14 100 -13 50 0 96 3 101 6 12 8 10 65 -3 83 -5 6 -24 12 -42 12 -30 0 -32
-2 -28 -27 3 -20 2 -24 -5 -15 -16 23 -46 9 -53 -23 -6 -25 -7 -22 -8 18 -1
36 -5 47 -17 47 -9 0 -14 -6 -12 -12z m146 -20 c-6 -18 -28 -21 -28 -4 0 9 7
16 16 16 9 0 14 -5 12 -12z m-138 -32 c0 -8 -4 -17 -9 -20 -10 -7 -23 19 -14
28 11 11 23 6 23 -8z m80 -11 c-10 -12 -16 -13 -26 -4 -20 16 -18 19 12 19 22
0 25 -2 14 -15z m63 0 c1 -5 -6 -11 -15 -13 -11 -2 -18 3 -18 13 0 17 30 18
33 0z"/>
<path d="M1108 2149 c-7 -22 5 -79 17 -79 11 0 11 8 6 83 -1 11 -19 8 -23 -4z"/>
<path d="M3780 2151 c0 -5 -12 -11 -27 -13 -25 -3 -28 -7 -28 -38 0 -29 3 -34
20 -32 11 2 29 3 41 3 21 -1 21 -2 15 82 -1 10 -21 9 -21 -2z m-10 -56 c-10
-12 -16 -13 -26 -4 -20 16 -18 19 12 19 22 0 25 -2 14 -15z"/>
<path d="M1041 2126 c-21 -25 -4 -58 27 -54 23 2 27 8 27 33 0 23 -5 31 -21
33 -11 2 -26 -4 -33 -12z m39 -27 c0 -21 -16 -26 -23 -6 -6 17 3 38 14 31 5
-3 9 -14 9 -25z"/>
<path d="M3312 818 c3 -7 -7 -19 -21 -26 -17 -9 -27 -10 -29 -3 -2 6 -12 11
-22 11 -12 0 -19 -9 -22 -30 -3 -17 -2 -32 0 -35 3 -3 49 -5 102 -5 l97 0 -5
28 c-2 18 2 33 13 42 16 13 17 11 14 -28 -4 -39 -3 -42 21 -41 14 0 19 3 13 6
-7 2 -13 20 -13 40 0 40 24 42 26 2 1 -47 3 -50 32 -47 23 2 27 8 27 33 0 22
-5 31 -20 34 -11 2 -22 7 -25 11 -3 4 -31 10 -63 13 -44 4 -57 3 -54 -6 3 -7
-6 -18 -19 -24 -22 -10 -24 -9 -24 13 0 15 -6 24 -16 24 -9 0 -14 -6 -12 -12z
m218 -59 c0 -21 -16 -26 -23 -6 -6 17 3 38 14 31 5 -3 9 -14 9 -25z m-210 7
c0 -8 -4 -17 -9 -20 -10 -7 -23 19 -14 28 11 11 23 6 23 -8z m70 0 c0 -8 -4
-17 -9 -20 -10 -7 -23 19 -14 28 11 11 23 6 23 -8z"/>
<path d="M3565 780 c0 -47 2 -50 25 -49 14 0 19 3 13 6 -20 8 -15 33 6 33 11
0 23 -9 26 -21 5 -15 14 -19 33 -17 23 2 27 8 27 33 0 26 -4 30 -27 30 -16 -1
-28 5 -28 11 0 14 -23 24 -53 24 -20 0 -22 -5 -22 -50z m47 15 c0 -5 -5 -11
-11 -13 -6 -2 -11 4 -11 13 0 9 5 15 11 13 6 -2 11 -8 11 -13z m68 -36 c0 -21
-16 -26 -23 -6 -6 17 3 38 14 31 5 -3 9 -14 9 -25z"/>
<path d="M3708 809 c-7 -22 5 -79 17 -79 11 0 11 8 6 83 -1 11 -19 8 -23 -4z"/>
</g>
</svg>
